<mxfile host="Electron" modified="2024-03-08T01:29:33.705Z" agent="Mozilla/5.0 (Windows NT 10.0; Win64; x64) AppleWebKit/537.36 (KHTML, like Gecko) draw.io/22.1.2 Chrome/114.0.5735.289 Electron/25.9.4 Safari/537.36" etag="v011tDh0MfVWrIMqfkbw" version="22.1.2" type="device">
  <diagram name="Página-1" id="OBs_TPShhrYGpZb52E6S">
    <mxGraphModel dx="3137" dy="2343" grid="1" gridSize="10" guides="1" tooltips="1" connect="1" arrows="1" fold="1" page="1" pageScale="1" pageWidth="827" pageHeight="1169" math="0" shadow="0">
      <root>
        <mxCell id="0" />
        <mxCell id="1" parent="0" />
        <mxCell id="m_MopAy0AkA3bnKfSZ2--10" value="USUÁRIO" style="swimlane;html=1;startSize=20;fontStyle=0;collapsible=0;horizontal=0;swimlaneLine=1;swimlaneFillColor=#ffffff;strokeWidth=2;whiteSpace=wrap;" vertex="1" parent="1">
          <mxGeometry x="260" y="400" width="1200" height="140" as="geometry" />
        </mxCell>
        <mxCell id="m_MopAy0AkA3bnKfSZ2--12" value="" style="points=[[0.145,0.145,0],[0.5,0,0],[0.855,0.145,0],[1,0.5,0],[0.855,0.855,0],[0.5,1,0],[0.145,0.855,0],[0,0.5,0]];shape=mxgraph.bpmn.event;html=1;verticalLabelPosition=bottom;labelBackgroundColor=#ffffff;verticalAlign=top;align=center;perimeter=ellipsePerimeter;outlineConnect=0;aspect=fixed;outline=standard;symbol=general;" vertex="1" parent="m_MopAy0AkA3bnKfSZ2--10">
          <mxGeometry x="60" y="40" width="50" height="50" as="geometry" />
        </mxCell>
        <mxCell id="m_MopAy0AkA3bnKfSZ2--21" style="edgeStyle=orthogonalEdgeStyle;rounded=0;orthogonalLoop=1;jettySize=auto;html=1;" edge="1" parent="m_MopAy0AkA3bnKfSZ2--10" source="m_MopAy0AkA3bnKfSZ2--14" target="m_MopAy0AkA3bnKfSZ2--15">
          <mxGeometry relative="1" as="geometry" />
        </mxCell>
        <mxCell id="m_MopAy0AkA3bnKfSZ2--14" value="SEPARAÇÃO DOS RESIDUOS" style="points=[[0.25,0,0],[0.5,0,0],[0.75,0,0],[1,0.25,0],[1,0.5,0],[1,0.75,0],[0.75,1,0],[0.5,1,0],[0.25,1,0],[0,0.75,0],[0,0.5,0],[0,0.25,0]];shape=mxgraph.bpmn.task;whiteSpace=wrap;rectStyle=rounded;size=10;html=1;container=1;expand=0;collapsible=0;taskMarker=abstract;" vertex="1" parent="m_MopAy0AkA3bnKfSZ2--10">
          <mxGeometry x="500" y="25" width="120" height="80" as="geometry" />
        </mxCell>
        <mxCell id="m_MopAy0AkA3bnKfSZ2--30" style="edgeStyle=orthogonalEdgeStyle;rounded=0;orthogonalLoop=1;jettySize=auto;html=1;" edge="1" parent="m_MopAy0AkA3bnKfSZ2--10" source="m_MopAy0AkA3bnKfSZ2--15" target="m_MopAy0AkA3bnKfSZ2--27">
          <mxGeometry relative="1" as="geometry" />
        </mxCell>
        <mxCell id="m_MopAy0AkA3bnKfSZ2--15" value="ALOCA EM LOCAL VISIVEL PARA COLETA" style="points=[[0.25,0,0],[0.5,0,0],[0.75,0,0],[1,0.25,0],[1,0.5,0],[1,0.75,0],[0.75,1,0],[0.5,1,0],[0.25,1,0],[0,0.75,0],[0,0.5,0],[0,0.25,0]];shape=mxgraph.bpmn.task;whiteSpace=wrap;rectStyle=rounded;size=10;html=1;container=1;expand=0;collapsible=0;taskMarker=abstract;" vertex="1" parent="m_MopAy0AkA3bnKfSZ2--10">
          <mxGeometry x="670" y="25" width="120" height="80" as="geometry" />
        </mxCell>
        <mxCell id="m_MopAy0AkA3bnKfSZ2--19" style="edgeStyle=orthogonalEdgeStyle;rounded=0;orthogonalLoop=1;jettySize=auto;html=1;entryX=0;entryY=0.5;entryDx=0;entryDy=0;entryPerimeter=0;" edge="1" parent="m_MopAy0AkA3bnKfSZ2--10" source="m_MopAy0AkA3bnKfSZ2--12" target="m_MopAy0AkA3bnKfSZ2--39">
          <mxGeometry relative="1" as="geometry" />
        </mxCell>
        <mxCell id="m_MopAy0AkA3bnKfSZ2--31" style="edgeStyle=orthogonalEdgeStyle;rounded=0;orthogonalLoop=1;jettySize=auto;html=1;" edge="1" parent="m_MopAy0AkA3bnKfSZ2--10" source="m_MopAy0AkA3bnKfSZ2--27" target="m_MopAy0AkA3bnKfSZ2--28">
          <mxGeometry relative="1" as="geometry" />
        </mxCell>
        <mxCell id="m_MopAy0AkA3bnKfSZ2--27" value="AGUARDA A COLETA" style="points=[[0.145,0.145,0],[0.5,0,0],[0.855,0.145,0],[1,0.5,0],[0.855,0.855,0],[0.5,1,0],[0.145,0.855,0],[0,0.5,0]];shape=mxgraph.bpmn.event;html=1;verticalLabelPosition=bottom;labelBackgroundColor=#ffffff;verticalAlign=top;align=center;perimeter=ellipsePerimeter;outlineConnect=0;aspect=fixed;outline=standard;symbol=timer;" vertex="1" parent="m_MopAy0AkA3bnKfSZ2--10">
          <mxGeometry x="830" y="40" width="50" height="50" as="geometry" />
        </mxCell>
        <mxCell id="m_MopAy0AkA3bnKfSZ2--32" style="edgeStyle=orthogonalEdgeStyle;rounded=0;orthogonalLoop=1;jettySize=auto;html=1;" edge="1" parent="m_MopAy0AkA3bnKfSZ2--10" source="m_MopAy0AkA3bnKfSZ2--28" target="m_MopAy0AkA3bnKfSZ2--29">
          <mxGeometry relative="1" as="geometry" />
        </mxCell>
        <mxCell id="m_MopAy0AkA3bnKfSZ2--28" value="VERIFICA SE O LIXO FOI RETIRADO" style="points=[[0.25,0,0],[0.5,0,0],[0.75,0,0],[1,0.25,0],[1,0.5,0],[1,0.75,0],[0.75,1,0],[0.5,1,0],[0.25,1,0],[0,0.75,0],[0,0.5,0],[0,0.25,0]];shape=mxgraph.bpmn.task;whiteSpace=wrap;rectStyle=rounded;size=10;html=1;container=1;expand=0;collapsible=0;taskMarker=abstract;" vertex="1" parent="m_MopAy0AkA3bnKfSZ2--10">
          <mxGeometry x="950" y="25" width="120" height="80" as="geometry" />
        </mxCell>
        <mxCell id="m_MopAy0AkA3bnKfSZ2--29" value="" style="points=[[0.145,0.145,0],[0.5,0,0],[0.855,0.145,0],[1,0.5,0],[0.855,0.855,0],[0.5,1,0],[0.145,0.855,0],[0,0.5,0]];shape=mxgraph.bpmn.event;html=1;verticalLabelPosition=bottom;labelBackgroundColor=#ffffff;verticalAlign=top;align=center;perimeter=ellipsePerimeter;outlineConnect=0;aspect=fixed;outline=end;symbol=terminate;" vertex="1" parent="m_MopAy0AkA3bnKfSZ2--10">
          <mxGeometry x="1130" y="40" width="50" height="50" as="geometry" />
        </mxCell>
        <mxCell id="m_MopAy0AkA3bnKfSZ2--41" style="edgeStyle=orthogonalEdgeStyle;rounded=0;orthogonalLoop=1;jettySize=auto;html=1;" edge="1" parent="m_MopAy0AkA3bnKfSZ2--10" source="m_MopAy0AkA3bnKfSZ2--39" target="m_MopAy0AkA3bnKfSZ2--40">
          <mxGeometry relative="1" as="geometry" />
        </mxCell>
        <mxCell id="m_MopAy0AkA3bnKfSZ2--39" value="VERIFICA OS DIAS DE COLETA" style="points=[[0.25,0,0],[0.5,0,0],[0.75,0,0],[1,0.25,0],[1,0.5,0],[1,0.75,0],[0.75,1,0],[0.5,1,0],[0.25,1,0],[0,0.75,0],[0,0.5,0],[0,0.25,0]];shape=mxgraph.bpmn.task;whiteSpace=wrap;rectStyle=rounded;size=10;html=1;container=1;expand=0;collapsible=0;taskMarker=abstract;" vertex="1" parent="m_MopAy0AkA3bnKfSZ2--10">
          <mxGeometry x="160" y="25" width="120" height="80" as="geometry" />
        </mxCell>
        <mxCell id="m_MopAy0AkA3bnKfSZ2--40" value="AGUARDA O DIA DA COLETA&lt;br&gt;" style="points=[[0.145,0.145,0],[0.5,0,0],[0.855,0.145,0],[1,0.5,0],[0.855,0.855,0],[0.5,1,0],[0.145,0.855,0],[0,0.5,0]];shape=mxgraph.bpmn.event;html=1;verticalLabelPosition=bottom;labelBackgroundColor=#ffffff;verticalAlign=top;align=center;perimeter=ellipsePerimeter;outlineConnect=0;aspect=fixed;outline=eventNonint;symbol=timer;" vertex="1" parent="m_MopAy0AkA3bnKfSZ2--10">
          <mxGeometry x="359" y="40" width="50" height="50" as="geometry" />
        </mxCell>
        <mxCell id="m_MopAy0AkA3bnKfSZ2--42" style="edgeStyle=orthogonalEdgeStyle;rounded=0;orthogonalLoop=1;jettySize=auto;html=1;entryX=0;entryY=0.5;entryDx=0;entryDy=0;entryPerimeter=0;" edge="1" parent="m_MopAy0AkA3bnKfSZ2--10" source="m_MopAy0AkA3bnKfSZ2--40" target="m_MopAy0AkA3bnKfSZ2--14">
          <mxGeometry relative="1" as="geometry">
            <mxPoint x="501.32000000000016" y="64.60000000000014" as="targetPoint" />
          </mxGeometry>
        </mxCell>
        <mxCell id="m_MopAy0AkA3bnKfSZ2--11" value="EMPRESA DE COLETA" style="swimlane;html=1;startSize=20;fontStyle=0;collapsible=0;horizontal=0;swimlaneLine=1;swimlaneFillColor=#ffffff;strokeWidth=2;whiteSpace=wrap;" vertex="1" parent="1">
          <mxGeometry x="260" y="580" width="1200" height="140" as="geometry" />
        </mxCell>
        <mxCell id="m_MopAy0AkA3bnKfSZ2--23" style="edgeStyle=orthogonalEdgeStyle;rounded=0;orthogonalLoop=1;jettySize=auto;html=1;" edge="1" parent="m_MopAy0AkA3bnKfSZ2--11" source="m_MopAy0AkA3bnKfSZ2--16" target="m_MopAy0AkA3bnKfSZ2--17">
          <mxGeometry relative="1" as="geometry" />
        </mxCell>
        <mxCell id="m_MopAy0AkA3bnKfSZ2--16" value="COLETA O RESIDUO EXPOSTOS" style="points=[[0.25,0,0],[0.5,0,0],[0.75,0,0],[1,0.25,0],[1,0.5,0],[1,0.75,0],[0.75,1,0],[0.5,1,0],[0.25,1,0],[0,0.75,0],[0,0.5,0],[0,0.25,0]];shape=mxgraph.bpmn.task;whiteSpace=wrap;rectStyle=rounded;size=10;html=1;container=1;expand=0;collapsible=0;taskMarker=abstract;" vertex="1" parent="m_MopAy0AkA3bnKfSZ2--11">
          <mxGeometry x="670" y="30" width="120" height="80" as="geometry" />
        </mxCell>
        <mxCell id="m_MopAy0AkA3bnKfSZ2--45" value="" style="edgeStyle=elbowEdgeStyle;fontSize=12;html=1;endFill=0;startFill=0;endSize=6;startSize=6;dashed=1;dashPattern=1 4;endArrow=openThin;startArrow=none;rounded=0;entryX=0.5;entryY=1;entryDx=0;entryDy=0;entryPerimeter=0;" edge="1" parent="m_MopAy0AkA3bnKfSZ2--16" target="m_MopAy0AkA3bnKfSZ2--15">
          <mxGeometry width="160" relative="1" as="geometry">
            <mxPoint x="40" as="sourcePoint" />
            <mxPoint x="200" as="targetPoint" />
            <Array as="points">
              <mxPoint x="60" y="-60" />
            </Array>
          </mxGeometry>
        </mxCell>
        <mxCell id="m_MopAy0AkA3bnKfSZ2--17" value="DESCARTA OS RESIDUOS APROPRIADAMENTE" style="points=[[0.25,0,0],[0.5,0,0],[0.75,0,0],[1,0.25,0],[1,0.5,0],[1,0.75,0],[0.75,1,0],[0.5,1,0],[0.25,1,0],[0,0.75,0],[0,0.5,0],[0,0.25,0]];shape=mxgraph.bpmn.task;whiteSpace=wrap;rectStyle=rounded;size=10;html=1;container=1;expand=0;collapsible=0;taskMarker=abstract;" vertex="1" parent="m_MopAy0AkA3bnKfSZ2--11">
          <mxGeometry x="950" y="30" width="120" height="80" as="geometry" />
        </mxCell>
        <mxCell id="m_MopAy0AkA3bnKfSZ2--18" value="" style="points=[[0.145,0.145,0],[0.5,0,0],[0.855,0.145,0],[1,0.5,0],[0.855,0.855,0],[0.5,1,0],[0.145,0.855,0],[0,0.5,0]];shape=mxgraph.bpmn.event;html=1;verticalLabelPosition=bottom;labelBackgroundColor=#ffffff;verticalAlign=top;align=center;perimeter=ellipsePerimeter;outlineConnect=0;aspect=fixed;outline=end;symbol=terminate;" vertex="1" parent="m_MopAy0AkA3bnKfSZ2--11">
          <mxGeometry x="1120" y="45" width="50" height="50" as="geometry" />
        </mxCell>
        <mxCell id="m_MopAy0AkA3bnKfSZ2--24" style="edgeStyle=orthogonalEdgeStyle;rounded=0;orthogonalLoop=1;jettySize=auto;html=1;entryX=0;entryY=0.5;entryDx=0;entryDy=0;entryPerimeter=0;" edge="1" parent="m_MopAy0AkA3bnKfSZ2--11" source="m_MopAy0AkA3bnKfSZ2--17" target="m_MopAy0AkA3bnKfSZ2--18">
          <mxGeometry relative="1" as="geometry" />
        </mxCell>
        <mxCell id="m_MopAy0AkA3bnKfSZ2--25" value="" style="points=[[0.145,0.145,0],[0.5,0,0],[0.855,0.145,0],[1,0.5,0],[0.855,0.855,0],[0.5,1,0],[0.145,0.855,0],[0,0.5,0]];shape=mxgraph.bpmn.event;html=1;verticalLabelPosition=bottom;labelBackgroundColor=#ffffff;verticalAlign=top;align=center;perimeter=ellipsePerimeter;outlineConnect=0;aspect=fixed;outline=standard;symbol=general;" vertex="1" parent="m_MopAy0AkA3bnKfSZ2--11">
          <mxGeometry x="60" y="45" width="50" height="50" as="geometry" />
        </mxCell>
        <mxCell id="m_MopAy0AkA3bnKfSZ2--34" value="AGENDA OS DIAS E LOCAIS QUE IRÃO COLETAR O LIXO" style="points=[[0.25,0,0],[0.5,0,0],[0.75,0,0],[1,0.25,0],[1,0.5,0],[1,0.75,0],[0.75,1,0],[0.5,1,0],[0.25,1,0],[0,0.75,0],[0,0.5,0],[0,0.25,0]];shape=mxgraph.bpmn.task;whiteSpace=wrap;rectStyle=rounded;size=10;html=1;container=1;expand=0;collapsible=0;taskMarker=abstract;" vertex="1" parent="m_MopAy0AkA3bnKfSZ2--11">
          <mxGeometry x="160" y="30" width="120" height="80" as="geometry" />
        </mxCell>
        <mxCell id="m_MopAy0AkA3bnKfSZ2--26" style="edgeStyle=orthogonalEdgeStyle;rounded=0;orthogonalLoop=1;jettySize=auto;html=1;" edge="1" parent="m_MopAy0AkA3bnKfSZ2--11" source="m_MopAy0AkA3bnKfSZ2--25" target="m_MopAy0AkA3bnKfSZ2--34">
          <mxGeometry relative="1" as="geometry">
            <mxPoint x="180" y="70" as="targetPoint" />
          </mxGeometry>
        </mxCell>
        <mxCell id="m_MopAy0AkA3bnKfSZ2--35" value="TRANSITA PELA AREA DE LOCAL DA COLETAS" style="points=[[0.25,0,0],[0.5,0,0],[0.75,0,0],[1,0.25,0],[1,0.5,0],[1,0.75,0],[0.75,1,0],[0.5,1,0],[0.25,1,0],[0,0.75,0],[0,0.5,0],[0,0.25,0]];shape=mxgraph.bpmn.task;whiteSpace=wrap;rectStyle=rounded;size=10;html=1;container=1;expand=0;collapsible=0;taskMarker=abstract;" vertex="1" parent="m_MopAy0AkA3bnKfSZ2--11">
          <mxGeometry x="330" y="30" width="120" height="80" as="geometry" />
        </mxCell>
        <mxCell id="m_MopAy0AkA3bnKfSZ2--36" style="edgeStyle=orthogonalEdgeStyle;rounded=0;orthogonalLoop=1;jettySize=auto;html=1;entryX=0;entryY=0.5;entryDx=0;entryDy=0;entryPerimeter=0;" edge="1" parent="m_MopAy0AkA3bnKfSZ2--11" source="m_MopAy0AkA3bnKfSZ2--34" target="m_MopAy0AkA3bnKfSZ2--35">
          <mxGeometry relative="1" as="geometry" />
        </mxCell>
        <mxCell id="m_MopAy0AkA3bnKfSZ2--37" style="edgeStyle=orthogonalEdgeStyle;rounded=0;orthogonalLoop=1;jettySize=auto;html=1;entryX=0;entryY=0.5;entryDx=0;entryDy=0;entryPerimeter=0;" edge="1" parent="m_MopAy0AkA3bnKfSZ2--11" source="m_MopAy0AkA3bnKfSZ2--35" target="m_MopAy0AkA3bnKfSZ2--16">
          <mxGeometry relative="1" as="geometry" />
        </mxCell>
        <mxCell id="m_MopAy0AkA3bnKfSZ2--44" value="" style="edgeStyle=elbowEdgeStyle;fontSize=12;html=1;endFill=0;startFill=0;endSize=6;startSize=6;dashed=1;dashPattern=1 4;endArrow=openThin;startArrow=none;rounded=0;exitX=0.5;exitY=1;exitDx=0;exitDy=0;exitPerimeter=0;entryX=0.5;entryY=0;entryDx=0;entryDy=0;entryPerimeter=0;" edge="1" parent="1" source="m_MopAy0AkA3bnKfSZ2--39" target="m_MopAy0AkA3bnKfSZ2--34">
          <mxGeometry width="160" relative="1" as="geometry">
            <mxPoint x="240" y="410" as="sourcePoint" />
            <mxPoint x="400" y="410" as="targetPoint" />
          </mxGeometry>
        </mxCell>
      </root>
    </mxGraphModel>
  </diagram>
</mxfile>
